<svg xmlns="http://www.w3.org/2000/svg" xmlns:xlink="http://www.w3.org/1999/xlink" width="333" zoomAndPan="magnify" viewBox="0 0 249.75 91.5" height="122" preserveAspectRatio="xMidYMid meet" version="1.0"><defs><g/></defs><g fill="#000000" fill-opacity="1"><g transform="translate(26.1325, 62.699991)"><g><path d="M 3.421875 0 L 3.421875 -34.71875 L 9.5625 -34.71875 L 9.5625 -21.734375 L 9.8125 -21.734375 C 10.132812 -22.367188 10.582031 -23.039062 11.15625 -23.75 C 11.726562 -24.46875 12.503906 -25.082031 13.484375 -25.59375 C 14.472656 -26.113281 15.726562 -26.375 17.25 -26.375 C 19.269531 -26.375 21.085938 -25.863281 22.703125 -24.84375 C 24.328125 -23.820312 25.613281 -22.3125 26.5625 -20.3125 C 27.519531 -18.320312 28 -15.878906 28 -12.984375 C 28 -10.128906 27.53125 -7.695312 26.59375 -5.6875 C 25.65625 -3.6875 24.378906 -2.160156 22.765625 -1.109375 C 21.148438 -0.0664062 19.316406 0.453125 17.265625 0.453125 C 15.773438 0.453125 14.539062 0.207031 13.5625 -0.28125 C 12.582031 -0.78125 11.796875 -1.382812 11.203125 -2.09375 C 10.609375 -2.800781 10.144531 -3.472656 9.8125 -4.109375 L 9.453125 -4.109375 L 9.453125 0 Z M 9.4375 -13.015625 C 9.4375 -11.335938 9.675781 -9.863281 10.15625 -8.59375 C 10.632812 -7.332031 11.328125 -6.347656 12.234375 -5.640625 C 13.148438 -4.929688 14.257812 -4.578125 15.5625 -4.578125 C 16.914062 -4.578125 18.050781 -4.941406 18.96875 -5.671875 C 19.882812 -6.398438 20.578125 -7.398438 21.046875 -8.671875 C 21.515625 -9.941406 21.75 -11.390625 21.75 -13.015625 C 21.75 -14.628906 21.515625 -16.0625 21.046875 -17.3125 C 20.585938 -18.570312 19.898438 -19.554688 18.984375 -20.265625 C 18.066406 -20.984375 16.925781 -21.34375 15.5625 -21.34375 C 14.25 -21.34375 13.132812 -20.992188 12.21875 -20.296875 C 11.300781 -19.609375 10.609375 -18.644531 10.140625 -17.40625 C 9.671875 -16.164062 9.4375 -14.703125 9.4375 -13.015625 Z M 9.4375 -13.015625 "/></g></g></g><g fill="#000000" fill-opacity="1"><g transform="translate(53.598063, 62.699991)"><g><path d="M 10.640625 0.53125 C 8.992188 0.53125 7.507812 0.234375 6.1875 -0.359375 C 4.875 -0.953125 3.835938 -1.832031 3.078125 -3 C 2.316406 -4.164062 1.9375 -5.601562 1.9375 -7.3125 C 1.9375 -8.78125 2.207031 -9.992188 2.75 -10.953125 C 3.289062 -11.910156 4.03125 -12.675781 4.96875 -13.25 C 5.90625 -13.832031 6.960938 -14.269531 8.140625 -14.5625 C 9.328125 -14.863281 10.550781 -15.082031 11.8125 -15.21875 C 13.34375 -15.375 14.582031 -15.515625 15.53125 -15.640625 C 16.476562 -15.773438 17.164062 -15.984375 17.59375 -16.265625 C 18.03125 -16.546875 18.25 -16.976562 18.25 -17.5625 L 18.25 -17.65625 C 18.25 -18.9375 17.867188 -19.925781 17.109375 -20.625 C 16.359375 -21.332031 15.269531 -21.6875 13.84375 -21.6875 C 12.34375 -21.6875 11.15625 -21.359375 10.28125 -20.703125 C 9.40625 -20.046875 8.816406 -19.269531 8.515625 -18.375 L 2.78125 -19.1875 C 3.226562 -20.769531 3.972656 -22.09375 5.015625 -23.15625 C 6.054688 -24.226562 7.328125 -25.03125 8.828125 -25.5625 C 10.335938 -26.101562 12 -26.375 13.8125 -26.375 C 15.070312 -26.375 16.320312 -26.226562 17.5625 -25.9375 C 18.800781 -25.644531 19.9375 -25.160156 20.96875 -24.484375 C 22 -23.816406 22.828125 -22.90625 23.453125 -21.75 C 24.078125 -20.59375 24.390625 -19.148438 24.390625 -17.421875 L 24.390625 0 L 18.5 0 L 18.5 -3.578125 L 18.296875 -3.578125 C 17.921875 -2.847656 17.394531 -2.171875 16.71875 -1.546875 C 16.050781 -0.921875 15.207031 -0.414062 14.1875 -0.03125 C 13.175781 0.34375 11.992188 0.53125 10.640625 0.53125 Z M 12.234375 -3.984375 C 13.472656 -3.984375 14.539062 -4.226562 15.4375 -4.71875 C 16.34375 -5.207031 17.039062 -5.859375 17.53125 -6.671875 C 18.019531 -7.492188 18.265625 -8.382812 18.265625 -9.34375 L 18.265625 -12.40625 C 18.078125 -12.25 17.753906 -12.101562 17.296875 -11.96875 C 16.835938 -11.832031 16.328125 -11.710938 15.765625 -11.609375 C 15.203125 -11.503906 14.640625 -11.410156 14.078125 -11.328125 C 13.523438 -11.253906 13.046875 -11.191406 12.640625 -11.140625 C 11.722656 -11.015625 10.90625 -10.8125 10.1875 -10.53125 C 9.46875 -10.25 8.894531 -9.851562 8.46875 -9.34375 C 8.050781 -8.84375 7.84375 -8.195312 7.84375 -7.40625 C 7.84375 -6.28125 8.253906 -5.425781 9.078125 -4.84375 C 9.910156 -4.269531 10.960938 -3.984375 12.234375 -3.984375 Z M 12.234375 -3.984375 "/></g></g></g><g fill="#000000" fill-opacity="1"><g transform="translate(78.402038, 62.699991)"><g><path d="M 14.515625 0.515625 C 11.910156 0.515625 9.675781 -0.0546875 7.8125 -1.203125 C 5.957031 -2.347656 4.53125 -3.925781 3.53125 -5.9375 C 2.53125 -7.957031 2.03125 -10.285156 2.03125 -12.921875 C 2.03125 -15.566406 2.535156 -17.898438 3.546875 -19.921875 C 4.566406 -21.953125 6.003906 -23.535156 7.859375 -24.671875 C 9.722656 -25.804688 11.925781 -26.375 14.46875 -26.375 C 16.582031 -26.375 18.457031 -25.984375 20.09375 -25.203125 C 21.726562 -24.429688 23.03125 -23.34375 24 -21.9375 C 24.96875 -20.53125 25.519531 -18.890625 25.65625 -17.015625 L 19.796875 -17.015625 C 19.554688 -18.273438 18.992188 -19.320312 18.109375 -20.15625 C 17.222656 -21 16.039062 -21.421875 14.5625 -21.421875 C 13.300781 -21.421875 12.195312 -21.082031 11.25 -20.40625 C 10.300781 -19.738281 9.5625 -18.773438 9.03125 -17.515625 C 8.507812 -16.265625 8.25 -14.765625 8.25 -13.015625 C 8.25 -11.242188 8.507812 -9.722656 9.03125 -8.453125 C 9.550781 -7.179688 10.28125 -6.203125 11.21875 -5.515625 C 12.164062 -4.828125 13.28125 -4.484375 14.5625 -4.484375 C 15.46875 -4.484375 16.273438 -4.65625 16.984375 -5 C 17.703125 -5.351562 18.304688 -5.859375 18.796875 -6.515625 C 19.285156 -7.171875 19.617188 -7.96875 19.796875 -8.90625 L 25.65625 -8.90625 C 25.507812 -7.0625 24.96875 -5.425781 24.03125 -4 C 23.09375 -2.582031 21.816406 -1.472656 20.203125 -0.671875 C 18.585938 0.117188 16.691406 0.515625 14.515625 0.515625 Z M 14.515625 0.515625 "/></g></g></g><g fill="#000000" fill-opacity="1"><g transform="translate(103.341643, 62.699991)"><g><path d="M 8.75 -8.171875 L 8.734375 -15.578125 L 9.71875 -15.578125 L 19.0625 -26.03125 L 26.234375 -26.03125 L 14.734375 -13.21875 L 13.453125 -13.21875 Z M 3.15625 0 L 3.15625 -34.71875 L 9.296875 -34.71875 L 9.296875 0 Z M 19.5 0 L 11.015625 -11.84375 L 15.15625 -16.171875 L 26.828125 0 Z M 19.5 0 "/></g></g></g><g fill="#000000" fill-opacity="1"><g transform="translate(127.874373, 62.699991)"><g><path d="M 23.734375 -19.15625 L 18.140625 -18.546875 C 17.984375 -19.109375 17.707031 -19.640625 17.3125 -20.140625 C 16.925781 -20.640625 16.40625 -21.039062 15.75 -21.34375 C 15.09375 -21.644531 14.289062 -21.796875 13.34375 -21.796875 C 12.0625 -21.796875 10.988281 -21.519531 10.125 -20.96875 C 9.257812 -20.414062 8.832031 -19.695312 8.84375 -18.8125 C 8.832031 -18.0625 9.113281 -17.445312 9.6875 -16.96875 C 10.257812 -16.488281 11.207031 -16.097656 12.53125 -15.796875 L 16.96875 -14.84375 C 19.425781 -14.3125 21.257812 -13.46875 22.46875 -12.3125 C 23.675781 -11.164062 24.285156 -9.660156 24.296875 -7.796875 C 24.285156 -6.160156 23.804688 -4.71875 22.859375 -3.46875 C 21.910156 -2.21875 20.597656 -1.238281 18.921875 -0.53125 C 17.253906 0.164062 15.335938 0.515625 13.171875 0.515625 C 9.984375 0.515625 7.414062 -0.15625 5.46875 -1.5 C 3.53125 -2.84375 2.375 -4.710938 2 -7.109375 L 7.984375 -7.671875 C 8.253906 -6.503906 8.828125 -5.617188 9.703125 -5.015625 C 10.585938 -4.421875 11.738281 -4.125 13.15625 -4.125 C 14.613281 -4.125 15.785156 -4.421875 16.671875 -5.015625 C 17.554688 -5.617188 18 -6.359375 18 -7.234375 C 18 -7.984375 17.710938 -8.597656 17.140625 -9.078125 C 16.578125 -9.566406 15.695312 -9.941406 14.5 -10.203125 L 10.046875 -11.140625 C 7.554688 -11.660156 5.710938 -12.535156 4.515625 -13.765625 C 3.316406 -15.003906 2.722656 -16.578125 2.734375 -18.484375 C 2.722656 -20.085938 3.160156 -21.476562 4.046875 -22.65625 C 4.929688 -23.832031 6.164062 -24.742188 7.75 -25.390625 C 9.34375 -26.046875 11.175781 -26.375 13.25 -26.375 C 16.300781 -26.375 18.707031 -25.722656 20.46875 -24.421875 C 22.226562 -23.128906 23.316406 -21.375 23.734375 -19.15625 Z M 23.734375 -19.15625 "/></g></g></g><g fill="#000000" fill-opacity="1"><g transform="translate(151.457751, 62.699991)"><g><path d="M 16.15625 -26.03125 L 16.15625 -21.296875 L 1.1875 -21.296875 L 1.1875 -26.03125 Z M 4.875 -32.28125 L 11.015625 -32.28125 L 11.015625 -7.828125 C 11.015625 -7.003906 11.140625 -6.375 11.390625 -5.9375 C 11.648438 -5.5 11.988281 -5.203125 12.40625 -5.046875 C 12.820312 -4.890625 13.285156 -4.8125 13.796875 -4.8125 C 14.179688 -4.8125 14.535156 -4.835938 14.859375 -4.890625 C 15.179688 -4.953125 15.425781 -5.003906 15.59375 -5.046875 L 16.625 -0.25 C 16.300781 -0.132812 15.835938 -0.0078125 15.234375 0.125 C 14.628906 0.257812 13.890625 0.335938 13.015625 0.359375 C 11.484375 0.398438 10.097656 0.164062 8.859375 -0.34375 C 7.628906 -0.863281 6.65625 -1.664062 5.9375 -2.75 C 5.21875 -3.832031 4.863281 -5.1875 4.875 -6.8125 Z M 4.875 -32.28125 "/></g></g></g><g fill="#000000" fill-opacity="1"><g transform="translate(166.971593, 62.699991)"><g><path d="M 14.515625 0.515625 C 11.972656 0.515625 9.769531 -0.0390625 7.90625 -1.15625 C 6.039062 -2.28125 4.59375 -3.847656 3.5625 -5.859375 C 2.539062 -7.867188 2.03125 -10.222656 2.03125 -12.921875 C 2.03125 -15.609375 2.539062 -17.960938 3.5625 -19.984375 C 4.59375 -22.003906 6.039062 -23.570312 7.90625 -24.6875 C 9.769531 -25.8125 11.972656 -26.375 14.515625 -26.375 C 17.054688 -26.375 19.257812 -25.8125 21.125 -24.6875 C 22.988281 -23.570312 24.429688 -22.003906 25.453125 -19.984375 C 26.472656 -17.960938 26.984375 -15.609375 26.984375 -12.921875 C 26.984375 -10.222656 26.472656 -7.867188 25.453125 -5.859375 C 24.429688 -3.847656 22.988281 -2.28125 21.125 -1.15625 C 19.257812 -0.0390625 17.054688 0.515625 14.515625 0.515625 Z M 14.546875 -4.40625 C 15.921875 -4.40625 17.070312 -4.785156 18 -5.546875 C 18.925781 -6.316406 19.617188 -7.34375 20.078125 -8.625 C 20.535156 -9.914062 20.765625 -11.351562 20.765625 -12.9375 C 20.765625 -14.53125 20.535156 -15.972656 20.078125 -17.265625 C 19.617188 -18.554688 18.925781 -19.585938 18 -20.359375 C 17.070312 -21.128906 15.921875 -21.515625 14.546875 -21.515625 C 13.128906 -21.515625 11.953125 -21.128906 11.015625 -20.359375 C 10.085938 -19.585938 9.394531 -18.554688 8.9375 -17.265625 C 8.476562 -15.972656 8.25 -14.53125 8.25 -12.9375 C 8.25 -11.351562 8.476562 -9.914062 8.9375 -8.625 C 9.394531 -7.34375 10.085938 -6.316406 11.015625 -5.546875 C 11.953125 -4.785156 13.128906 -4.40625 14.546875 -4.40625 Z M 14.546875 -4.40625 "/></g></g></g><g fill="#000000" fill-opacity="1"><g transform="translate(193.369133, 62.699991)"><g><path d="M 3.15625 9.765625 L 3.15625 -26.03125 L 9.1875 -26.03125 L 9.1875 -21.734375 L 9.546875 -21.734375 C 9.859375 -22.367188 10.300781 -23.039062 10.875 -23.75 C 11.457031 -24.46875 12.238281 -25.082031 13.21875 -25.59375 C 14.207031 -26.113281 15.460938 -26.375 16.984375 -26.375 C 18.992188 -26.375 20.8125 -25.863281 22.4375 -24.84375 C 24.0625 -23.820312 25.347656 -22.3125 26.296875 -20.3125 C 27.253906 -18.320312 27.734375 -15.878906 27.734375 -12.984375 C 27.734375 -10.128906 27.265625 -7.695312 26.328125 -5.6875 C 25.390625 -3.6875 24.109375 -2.160156 22.484375 -1.109375 C 20.867188 -0.0664062 19.039062 0.453125 17 0.453125 C 15.507812 0.453125 14.269531 0.207031 13.28125 -0.28125 C 12.300781 -0.78125 11.515625 -1.382812 10.921875 -2.09375 C 10.328125 -2.800781 9.867188 -3.472656 9.546875 -4.109375 L 9.296875 -4.109375 L 9.296875 9.765625 Z M 9.171875 -13.015625 C 9.171875 -11.335938 9.410156 -9.863281 9.890625 -8.59375 C 10.367188 -7.332031 11.0625 -6.347656 11.96875 -5.640625 C 12.882812 -4.929688 13.992188 -4.578125 15.296875 -4.578125 C 16.648438 -4.578125 17.78125 -4.941406 18.6875 -5.671875 C 19.601562 -6.398438 20.296875 -7.398438 20.765625 -8.671875 C 21.242188 -9.941406 21.484375 -11.390625 21.484375 -13.015625 C 21.484375 -14.628906 21.25 -16.0625 20.78125 -17.3125 C 20.320312 -18.570312 19.632812 -19.554688 18.71875 -20.265625 C 17.800781 -20.984375 16.660156 -21.34375 15.296875 -21.34375 C 13.984375 -21.34375 12.867188 -20.992188 11.953125 -20.296875 C 11.035156 -19.609375 10.34375 -18.644531 9.875 -17.40625 C 9.40625 -16.164062 9.171875 -14.703125 9.171875 -13.015625 Z M 9.171875 -13.015625 "/></g></g></g><path fill="#009d9a" d="M 224.449219 70.960938 C 224.21875 70.960938 224.019531 70.878906 223.855469 70.714844 C 223.691406 70.550781 223.609375 70.351562 223.609375 70.121094 L 223.609375 51.59375 C 223.609375 51.445312 223.644531 51.308594 223.71875 51.175781 C 223.792969 51.046875 223.894531 50.945312 224.023438 50.871094 C 224.148438 50.792969 224.289062 50.753906 224.4375 50.753906 C 224.585938 50.75 224.726562 50.785156 224.855469 50.855469 L 241.699219 60.121094 C 241.988281 60.28125 242.132812 60.527344 242.132812 60.859375 C 242.132812 61.191406 241.988281 61.4375 241.699219 61.59375 L 224.855469 70.859375 C 224.730469 70.929688 224.59375 70.960938 224.449219 70.960938 Z M 224.449219 70.960938 " fill-opacity="1" fill-rule="nonzero"/></svg>